<svg width="50" height="54" viewBox="0 0 50 54" fill="none" xmlns="http://www.w3.org/2000/svg">
<path d="M44.0422 5.0286C42.0253 3.32746 39.638 2.27438 37.0861 1.62632C30.7062 0.00618997 24.2441 -0.439347 17.6996 0.451727C14.4068 0.897263 11.1963 1.74783 8.23271 3.36797C4.77525 5.31213 2.38795 8.06635 1.35894 11.8737C0.576898 14.5874 0.206455 17.3821 0.082974 20.1768C-0.122828 24.3082 0.000653375 28.4395 1.07082 32.4494C2.30563 37.1072 5.02221 40.55 9.67332 42.4132C10.1672 42.6157 10.6612 42.8992 11.1551 43.1017C11.6079 43.3043 11.7725 43.5878 11.7725 44.0738C11.7313 47.3141 11.7725 50.5544 11.7725 53.9161C13.0073 52.7415 13.8305 51.891 14.4479 51.2429C16.259 49.2177 17.9877 47.5166 19.9222 45.5724C20.8689 44.6004 20.4985 44.6409 21.9803 44.6814C23.7501 44.7219 26.5079 44.7624 28.2778 44.6409C31.6118 44.3978 34.9458 43.9523 38.1563 43.0207C42.2723 41.8056 45.5239 39.659 47.2115 35.5681C47.6643 34.4745 48.0759 33.3809 48.364 32.2468C49.9693 25.7663 49.7635 19.2453 48.4052 12.7647C47.7878 9.72699 46.4706 7.05377 44.0422 5.0286ZM23.6678 8.95743C23.709 8.34988 24.0794 8.10686 24.6557 8.10686C29.7596 8.34988 33.5875 9.8485 36.5098 13.7368C38.2386 16.005 39.1853 19.1238 39.2676 21.9995C39.2676 22.445 39.2676 22.8501 39.2676 23.2956C39.2264 23.7816 39.0206 24.1462 38.4855 24.1462C37.9505 24.1462 37.6623 23.8627 37.6212 23.2956C37.4977 21.1894 37.0449 19.1238 36.2217 17.1391C34.6165 13.3318 31.5706 11.2661 27.6604 10.294C26.6314 10.051 25.5612 9.808 24.491 9.72699C24.0794 9.68649 23.6267 9.56498 23.6678 8.95743ZM28.8129 14.2634C27.7839 13.8988 26.7137 13.6153 25.6435 13.4533C25.1084 13.3723 24.738 13.0888 24.8203 12.4812C24.9026 11.9142 25.2731 11.6712 25.8493 11.7522C29.3891 12.0762 32.188 13.3723 34.0814 16.3695C34.9869 17.7872 35.4808 19.8123 35.4397 21.3109C35.3985 22.364 35.2339 22.6476 34.6165 22.6476C33.7109 22.607 33.8344 21.878 33.7933 21.3514C33.6698 20.5414 33.5051 19.7313 33.2582 18.9212C32.5585 16.6126 31.1178 15.0734 28.8129 14.2634ZM31.8176 20.1768C31.7764 20.4604 31.7764 20.6629 31.7352 20.8654C31.6529 21.2704 31.406 21.473 30.9532 21.5135C30.5004 21.5135 30.2946 21.2704 30.1712 20.9059C30.0888 20.6629 30.0888 20.3794 30.0065 20.0958C29.7184 18.6782 28.8952 17.7466 27.4957 17.3821C27.3311 17.3416 27.1253 17.3011 26.9607 17.2606C26.5079 17.1391 25.9728 17.1391 25.9316 16.491C25.9316 15.9645 26.3432 15.6405 27.0841 15.6C27.5781 15.5595 28.3601 15.8025 28.8129 16.0455C30.7062 16.8961 31.5706 18.1517 31.8176 20.1768ZM39.2676 35.0011C38.2797 37.1882 36.5922 38.6464 34.246 39.2944C33.3817 39.5374 32.5585 39.3349 31.7764 39.0109C20.9924 34.515 13.2131 27.0624 8.80896 16.329C8.47968 15.5595 8.31503 14.7494 8.31503 14.0203C8.31503 11.2661 10.7847 8.6739 13.5012 8.55239C14.2421 8.51189 14.9007 8.75491 15.4358 9.24095C17.3291 10.9826 18.8521 13.0078 19.9634 15.357C20.5808 16.6126 20.3338 17.5036 19.2225 18.3947C19.0579 18.5567 18.8521 18.6782 18.6874 18.7997C17.2468 19.8528 16.9175 20.9059 17.6173 22.5665C18.7698 25.2803 20.622 27.3864 23.0916 28.9256C24.0383 29.5331 24.985 30.0597 26.0963 30.3837C27.0841 30.6672 27.9073 30.3837 28.5247 29.5736C28.6071 29.4926 28.6482 29.4116 28.7305 29.2901C30.13 27.3864 31.6118 27.0624 33.6286 28.318C35.3574 29.3711 36.9626 30.5862 38.5267 31.8823C39.5557 32.7329 39.8438 33.786 39.2676 35.0011Z" fill="white"/>
</svg>
